<?xml version="1.0" standalone="no"?>
<svg xmlns="http://www.w3.org/2000/svg" viewBox="0 0 72 69" width="72" height="69"><g fill="#deab26" color="#deab26" transform="translate(17.959 0) scale(0.7407408) "><svg width="48.0" height="54.0" x="0.0" y="0.0" viewBox="0 0 48 54"><path fill="currentColor" fill-rule="evenodd" d="M45.692 20.235c-.178.534-.593 1.484-.712 1.662-.06.06-.178.178-.356 0-.534-.594-1.246-1.306-1.78-1.9-.119-.118-.178-.355-.06-.533.238-.475.475-1.128.653-1.602 0 0 0-.06.06-.06 0 0 .118-.178.296 0 2.018 2.196 2.018 2.196 1.9 2.433m-1.484 3.205l-.475.771c-.771 1.246-.771 1.246-1.068 1.068-.534-.593-1.246-1.305-1.78-1.899-.119-.118-.119-.356 0-.534.178-.296.415-.653.593-1.009.594-1.068.594-1.068.83-.83.594.652 1.247 1.246 1.781 1.899.178.118.237.296.119.534m-2.196 3.382c-.297.356-.653.83-.95 1.187-.652.771-.711.83-.949.593-.534-.593-1.246-1.305-1.78-1.899-.119-.118-.119-.356.06-.534l.474-.593c1.187-1.424 1.187-1.424 1.365-1.246.593.652 1.246 1.187 1.78 1.899.06.178.119.356 0 .593m-2.908 3.264c-2.076 1.899-2.076 1.899-2.373 1.661-.534-.593-1.246-1.305-1.78-1.899-.119-.178-.119-.356.059-.474.534-.475 1.305-1.068 1.78-1.603l.119-.118s.237-.178.475 0c.593.653 1.246 1.187 1.78 1.899.06.118.119.296-.06.534m-3.145 2.61l-.712.475c-1.008.713-1.008.713-1.246.475-.534-.593-1.246-1.305-1.72-1.899-.12-.118-.12-.296.059-.415l.771-.534c.89-.653.89-.653 1.128-.416.593.653 1.246 1.247 1.78 1.9 0 .059.118.237-.06.415m-2.907 1.958l-1.068.653c-.89.534-.89.593-1.128.356-.534-.594-1.246-1.306-1.72-1.9-.12-.118-.12-.296.059-.414l.593-.416c1.306-.83 1.306-.83 1.543-.593.593.652 1.246 1.246 1.78 1.958 0 0 .178.178-.06.356m-3.144 2.018c-.594.415-1.128.89-1.78 1.186 0 0-.238.12-.475-.059-.534-.593-1.246-1.305-1.721-1.899-.119-.119-.119-.297.06-.415 1.957-1.306 1.957-1.306 2.254-1.068.594.652 1.246 1.246 1.78 1.958-.059-.06.12.119-.118.297m-3.264 2.255l-.771.593c-1.187.89-1.187.89-1.425.653-.534-.594-1.246-1.306-1.72-1.9-.12-.177-.12-.355.059-.474l.89-.712c1.009-.771 1.009-.771 1.246-.534.593.653 1.246 1.246 1.78 1.958.119.06.119.238-.059.416m-3.145 2.432l-1.009.95c-.712.712-.771.712-.95.534-.533-.593-1.245-1.305-1.72-1.899-.119-.178-.119-.356 0-.475l.534-.474c1.246-1.187 1.246-1.187 1.543-.95.593.653 1.246 1.246 1.78 1.958 0 .06 0 .238-.178.356m-2.79 2.849c-.414.475-.949 1.127-1.305 1.661l-.059.06s-.178.178-.356 0c-.534-.594-1.246-1.365-1.72-1.9a.445.445 0 0 1 0-.533c1.483-1.958 1.483-1.958 1.72-1.662.593.653 1.246 1.246 1.78 1.958 0-.059.119.178-.06.416m-2.313 3.204l-.95 1.9s0 .058-.06.058c-.059.06-.177.179-.296 0-.534-.593-1.246-1.364-1.72-1.898-.12-.178-.179-.356-.06-.594.83-1.72.83-1.72.95-1.958.059-.06.177-.178.355-.06.594.653 1.247 1.247 1.78 1.959 0 .119.179.297 0 .593M14.124 22.55s-.237.118-.415-.06c-.534-.534-1.187-1.305-1.721-1.899-.119-.118-.06-.296.06-.415 1.957-1.306 1.957-1.306 2.195-1.068.593.652 1.246 1.187 1.72 1.899 0 0 .179.237-.059.415-.593.356-1.127.83-1.78 1.128M12.7 23.558l-.772.534c-1.186.89-1.186.89-1.424.653-.534-.593-1.187-1.305-1.72-1.899-.12-.118-.12-.296.059-.475l.89-.712c1.009-.771 1.009-.771 1.246-.534.593.653 1.246 1.187 1.72 1.9.12.118.238.355 0 .533m-3.085 2.433l-1.009.95c-.712.712-.771.712-.95.534-.533-.594-1.186-1.306-1.72-1.9a.361.361 0 0 1 0-.474l.534-.475c1.246-1.127 1.246-1.127 1.484-.89.593.653 1.246 1.187 1.72 1.9 0-.06.12.118-.059.355m-2.789 2.79c-.415.474-.89 1.127-1.305 1.66l-.06.06s-.178.178-.356 0c-.534-.593-1.187-1.305-1.72-1.899-.12-.118-.12-.356 0-.534 1.483-1.958 1.483-1.958 1.72-1.661.594.652 1.246 1.186 1.721 1.899.06 0 .178.237 0 .474M4.57 31.985c-.296.593-.653 1.305-.89 1.899 0 0 0 .059-.06.059-.059.06-.118.178-.296.06-.534-.594-1.187-1.306-1.72-1.9-.12-.178-.179-.356-.06-.593.771-1.72.771-1.72.95-1.958.059-.06.177-.178.355-.06.594.653 1.187 1.187 1.721 1.9 0 .118.119.296 0 .593m10.682-13.886l.593-.356c1.305-.83 1.305-.83 1.543-.593.593.652 1.246 1.186 1.72 1.898a.23.23 0 0 1-.059.356l-1.008.653c-.831.534-.89.534-1.128.356-.534-.534-1.187-1.305-1.72-1.899-.12-.178-.06-.296.059-.415m3.085-1.958l.772-.534c.89-.653.89-.653 1.127-.416.594.653 1.246 1.187 1.721 1.9.06.118.119.237-.06.355l-.711.475c-1.01.712-1.01.712-1.247.475-.534-.534-1.186-1.306-1.72-1.84-.06-.178 0-.297.118-.415m2.73-2.018c.534-.475 1.246-1.068 1.78-1.602l.119-.119s.237-.178.415 0c.594.653 1.246 1.187 1.721 1.9.06.058.119.296-.06.474-2.076 1.899-2.076 1.899-2.373 1.661a48.81 48.81 0 0 1-1.72-1.84c-.06-.118-.06-.296.118-.474m3.264-3.086l.474-.534c1.128-1.424 1.128-1.424 1.365-1.246.594.653 1.246 1.187 1.721 1.9.06.058.119.296 0 .533-.297.356-.653.83-.95 1.187-.652.771-.711.83-.949.593a48.81 48.81 0 0 1-1.72-1.84c-.06-.237-.06-.415.059-.593m2.551-3.382c.178-.297.416-.653.594-.95.593-1.068.593-1.068.83-.83.594.653 1.247 1.187 1.78 1.899.06.118.12.296.06.534l-.415.771c-.772 1.246-.772 1.246-1.01 1.068A48.81 48.81 0 0 1 27 8.307c-.237-.296-.237-.474-.119-.652m1.78-3.264c.179-.474.475-1.127.653-1.602 0 0 0-.06.06-.06 0 0 .118-.177.296 0 1.959 2.078 1.959 2.078 1.84 2.374-.237.534-.534 1.484-.653 1.662-.06.06-.178.178-.356 0-.534-.594-1.246-1.306-1.72-1.899a.462.462 0 0 1-.12-.475M46.168 18.93c-.06.06-.119.118-.297 0-.534-.594-1.246-1.306-1.78-1.9-.119-.118-.178-.355-.178-.474.06-.297.178-.712.237-1.009L32.103 2.967c-.118.593-.178.772-.178.83 0 .06-.118.12-.296 0a48.81 48.81 0 0 1-1.721-1.839c-.119-.118-.178-.356-.178-.474.059-.238.118-.475.178-.772L29.255 0c-.297 1.662-1.068 3.68-2.374 5.993-.771 1.306-1.424 2.255-2.67 3.798-1.958 2.255-3.323 3.442-5.697 5.163-1.483 1.009-1.483 1.009-3.204 2.077-3.383 2.136-4.035 2.551-6.112 4.035-1.484 1.127-1.9 1.484-3.383 2.789C2.79 26.941.95 29.433 0 34.002l.593.653.297-1.365c.06-.06.178-.119.237-.178.535.594 1.247 1.365 1.78 1.958.179.356.179.356-.177 2.018.83.89 1.899 2.136 2.73 3.026.415.475.949 1.068 1.364 1.543.83.89 1.9 2.136 2.73 3.027.83.89 1.899 2.136 2.73 3.085a74.252 74.252 0 0 1 2.076 2.374l.356-1.424c.06-.06.179-.119.238-.178.534.593 1.305 1.365 1.84 2.017.177.356.177.356-.238 2.018l.771.89c.89-3.68 2.137-6.409 5.994-10.207 1.424-1.246 1.661-1.483 3.382-2.848 2.137-1.602 2.79-2.018 6.112-4.154 1.959-1.246 2.137-1.365 3.264-2.136 1.78-1.246 3.383-2.433 5.756-5.222 1.009-1.246 1.662-2.077 2.73-3.798 1.483-2.551 2.314-4.628 2.61-6.35l-.77-.83c-.179.771-.238.95-.238 1.009"></path></svg></g><path fill="#0f1c93" fill-rule="nonzero" d="M10.75 20.18Q9.91 20.18 8.64 18.59Q7.37 16.99 6.11 14.75Q4.85 12.50 4.06 10.63L4.06 10.63Q3.50 12.48 2.76 15.19L2.76 15.19Q2.35 16.73 1.58 19.37L1.58 19.37Q0.96 19.37 0.48 19.02Q0 18.67 0 18.17L0 18.17Q0 17.81 0.34 16.85L0.34 16.85Q1.94 11.86 3.29 8.24Q4.63 4.63 6.41 0.60L6.41 0.60Q5.50 0.74 4.84 1.02Q4.18 1.30 3.41 1.70L3.41 1.70Q2.95 1.97 2.83 1.97L2.83 1.97Q2.66 1.97 2.38 1.73Q2.09 1.49 2.09 1.32L2.09 1.32Q5.16 0 7.49 0L7.49 0Q8.98 0 10.37 0.48Q11.76 0.96 12.66 1.97Q13.56 2.98 13.56 4.49L13.56 4.49Q13.56 6.62 11.84 7.79Q10.13 8.95 8.10 9.32Q6.07 9.70 4.61 9.70L4.61 9.70Q4.85 10.13 5.05 10.49Q5.26 10.85 5.42 11.14L5.42 11.14Q6.46 12.98 7.24 14.18Q8.02 15.38 9.18 16.72Q10.34 18.05 11.98 19.39L11.98 19.39Q11.83 19.70 11.46 19.94Q11.09 20.18 10.75 20.18L10.75 20.18ZM4.44 9.31Q6.34 9.19 8.04 8.59Q9.74 7.99 10.85 6.84Q11.95 5.69 11.95 3.98L11.95 3.98Q11.95 2.16 10.72 1.33Q9.48 0.50 7.66 0.50L7.66 0.50Q6.22 3.38 4.44 9.31L4.44 9.31ZM15.34 18.34Q13.92 18.34 13.16 17.56Q12.41 16.78 12.41 15.55L12.41 15.55Q12.41 14.14 13.34 12.50Q14.28 10.87 15.71 9.76Q17.14 8.64 18.50 8.64L18.50 8.64Q19.99 8.64 19.99 10.10L19.99 10.10Q19.99 11.28 19.10 12.30Q18.22 13.32 16.82 13.97Q15.43 14.62 14.04 14.76L14.04 14.76Q13.94 15.17 13.94 15.62L13.94 15.62Q13.94 16.49 14.38 17.06Q14.81 17.64 15.84 17.64L15.84 17.64Q17.30 17.64 18.79 16.42Q20.28 15.19 21.22 13.39L21.22 13.39L21.50 13.61Q20.54 15.74 18.84 17.04Q17.14 18.34 15.34 18.34L15.34 18.34ZM14.16 14.30Q15.17 13.94 16.27 13.30Q17.38 12.65 18.16 11.77Q18.94 10.90 18.94 9.94L18.94 9.94Q18.94 9.65 18.83 9.52Q18.72 9.38 18.43 9.38L18.43 9.38Q17.69 9.38 16.81 10.13Q15.94 10.87 15.20 12.02Q14.47 13.18 14.16 14.30L14.16 14.30ZM19.82 19.39Q19.94 18.19 20.93 17.83Q21.91 17.47 23.74 17.47L23.74 17.47Q24.46 15.94 25.13 13.39Q25.80 10.85 26.71 6.86L26.71 6.86Q26.83 6.34 27.30 4.33Q27.77 2.33 28.10 1.42L28.10 1.42Q26.21 1.46 25.12 1.56Q24.02 1.66 22.70 1.90L22.70 1.90Q22.87 0.96 24.04 0.50Q25.20 0.05 27.60 0.05L27.60 0.05Q29.16 0.05 30.92 0.22Q32.69 0.38 33.89 0.55L33.89 0.55Q33.38 1.06 32.80 1.22Q32.21 1.39 31.56 1.39L31.56 1.39Q29.69 1.39 28.94 1.42L28.94 1.42L28.78 2.28Q27.29 10.54 26.57 13.39L26.57 13.39Q26.16 15.02 25.68 16.04Q25.20 17.06 24.55 17.50L24.55 17.50Q25.68 17.57 26.88 17.71L26.88 17.71Q28.63 17.93 29.76 17.95L29.76 17.95Q28.73 18.98 27.05 18.98L27.05 18.98L25.87 18.98Q23.66 19.01 22.39 19.07Q21.12 19.13 19.82 19.39L19.82 19.39ZM39.05 17.76Q38.23 17.76 37.80 17.34Q37.37 16.92 37.37 16.22L37.37 16.22Q37.37 15.91 37.48 15.49Q37.58 15.07 37.70 14.66L37.70 14.66Q37.85 14.23 37.96 13.75Q38.06 13.27 38.06 12.89L38.06 12.89Q38.06 11.71 37.10 11.71L37.10 11.71Q36.19 11.71 35.20 12.67Q34.20 13.63 33.42 14.81Q32.64 15.98 31.66 17.64L31.66 17.64Q31.25 17.64 30.91 17.51Q30.58 17.38 30.38 17.11L30.38 17.11Q30.38 16.99 30.70 16.25L30.70 16.25Q31.30 14.71 31.68 13.45Q32.06 12.19 32.09 11.21L32.09 11.21Q32.26 11.02 32.57 10.86Q32.88 10.70 33.19 10.70L33.19 10.70Q33.84 10.70 33.84 11.33L33.84 11.33Q33.84 11.69 33.62 12.59Q33.41 13.49 33.07 14.50L33.07 14.50Q34.22 12.72 35.52 11.50Q36.82 10.27 38.06 10.27L38.06 10.27Q38.95 10.27 39.40 10.91Q39.84 11.54 39.84 12.43L39.84 12.43Q39.84 12.96 39.71 13.44Q39.58 13.92 39.31 14.54L39.31 14.54Q39.10 15.07 38.98 15.46Q38.86 15.84 38.86 16.22L38.86 16.22Q38.86 17.14 39.58 17.14L39.58 17.14Q40.39 17.14 41.27 16.06Q42.14 14.98 42.94 13.39L42.94 13.39L43.20 13.70Q41.47 17.76 39.05 17.76L39.05 17.76ZM42.89 19.37Q42.07 18.91 42.07 18.12L42.07 18.12Q42.07 17.18 43.07 15.19Q44.06 13.20 45.72 10.61L45.72 10.61Q44.26 10.49 43.13 10.49L43.13 10.49L42.29 10.49Q42.74 9.24 44.78 9.24L44.78 9.24Q45.43 9.24 46.51 9.41L46.51 9.41Q48.36 6.62 50.27 4.16Q52.18 1.70 53.28 0.67L53.28 0.67Q53.98 0 54.43 0L54.43 0Q54.94 0 55.70 0.77L55.70 0.77Q55.22 1.15 54.31 3.88Q53.40 6.60 52.68 9.83Q51.96 13.06 51.96 15.02L51.96 15.02Q51.96 15.98 52.16 16.46Q52.37 16.94 52.85 16.94L52.85 16.94Q54.17 16.94 55.99 13.39L55.99 13.39L56.23 13.63Q55.49 15.60 54.37 16.80Q53.26 18 52.08 18L52.08 18Q51.12 18 50.66 17.15Q50.21 16.30 50.21 14.78L50.21 14.78Q50.21 13.25 50.62 11.21L50.62 11.21Q49.08 10.97 47.06 10.73L47.06 10.73Q44.71 15.05 42.89 19.37L42.89 19.37ZM50.78 10.37Q51.29 8.11 52.08 5.69Q52.87 3.26 53.66 1.51L53.66 1.51Q52.58 2.18 51.01 4.34Q49.44 6.50 47.69 9.62L47.69 9.62Q48.65 9.82 49.70 10.10L49.70 10.10L50.78 10.37ZM59.66 17.90Q58.85 17.90 58.38 17.47Q57.91 17.04 57.91 16.34L57.91 16.34Q57.91 15.53 58.61 13.99L58.61 13.99Q58.92 13.20 59.08 12.73Q59.23 12.26 59.23 11.86L59.23 11.86Q59.23 11.26 58.96 10.91Q58.68 10.56 58.34 10.33Q58.01 10.10 57.89 10.03L57.89 10.03Q57.36 11.38 56.76 12.66Q56.16 13.94 55.75 14.64L55.75 14.64L55.54 14.23Q56.69 12 57.48 9.67L57.48 9.67Q57.24 9.43 57.24 9.10L57.24 9.10Q57.24 8.66 57.42 8.28Q57.60 7.90 57.85 7.68Q58.10 7.46 58.25 7.46L58.25 7.46Q58.58 7.46 58.58 8.04L58.58 8.04Q58.58 8.14 58.46 8.47Q58.34 8.81 58.32 8.93L58.32 8.93Q58.32 9.17 58.52 9.37Q58.73 9.58 59.18 9.89L59.18 9.89Q59.93 10.42 60.35 10.93Q60.77 11.45 60.77 12.26L60.77 12.26Q60.77 12.79 60.60 13.31Q60.43 13.82 60.10 14.66L60.10 14.66Q59.57 15.82 59.57 16.32L59.57 16.32Q59.57 17.04 60.29 17.04L60.29 17.04Q61.01 17.04 61.84 16.46Q62.66 15.89 63.36 15.04Q64.06 14.18 64.37 13.46L64.37 13.46L64.68 13.70Q63.94 15.36 62.52 16.63Q61.10 17.90 59.66 17.90L59.66 17.90ZM65.90 18.38Q63.77 18.38 63.77 16.01L63.77 16.01Q63.77 14.98 64.14 13.45Q64.51 11.93 65.16 10.22L65.16 10.22Q64.58 10.13 64.30 10.03L64.30 10.03L64.30 9.60Q65.16 9.70 65.35 9.70L65.35 9.70Q66.41 6.96 67.62 4.96Q68.83 2.95 69.53 2.95L69.53 2.95Q69.72 2.95 69.88 3.10Q70.03 3.24 70.03 3.48L70.03 3.48Q70.03 3.79 69.73 4.39Q69.43 4.99 68.71 6.24L68.71 6.24Q68.59 6.48 67.97 7.57Q67.34 8.66 66.84 9.77L66.84 9.77L67.73 9.77Q69.72 9.77 71.16 9.62L71.16 9.62L71.16 10.06Q68.54 10.34 66.94 10.34L66.94 10.34L66.58 10.34Q65.26 13.37 65.26 15.58L65.26 15.58Q65.26 16.61 65.57 17.05Q65.88 17.50 66.60 17.50L66.60 17.50Q67.82 17.50 69.02 16.40Q70.22 15.31 71.16 13.39L71.16 13.39L71.47 13.63Q70.58 15.72 69.07 17.05Q67.56 18.38 65.90 18.38L65.90 18.38Z" transform="translate(0, 48)"></path></svg>